<svg xmlns="http://www.w3.org/2000/svg" width="960" height="640" viewBox="0 0 960 640"><path fill="#fafafa" d="M0 0h960v640H0z"/><g stroke="#292524" stroke-width="1.6" stroke-linecap="square"><path d="M81.19 42.67l9.62 -5.34"/><path d="M109.19 42.67l9.61 -5.34"/><path d="M137.17 42.62l9.67 -5.24"/><path d="M165.11 42.52l9.78 -5.03"/><path d="M193.03 42.35l9.94 -4.71"/><path d="M220.93 42.13l10.14 -4.27"/><path d="M248.82 41.85l10.36 -3.70"/><path d="M276.71 41.51l10.58 -3.01"/><path d="M304.61 41.11l10.77 -2.21"/><path d="M332.54 40.66l10.92 -1.32"/><path d="M360.50 40.18l10.99 -0.36"/><path d="M388.51 39.68l10.98 0.63"/><path d="M416.56 39.20l10.88 1.61"/><path d="M444.65 38.74l10.71 2.53"/><path d="M472.76 38.32l10.47 3.37"/><path d="M500.90 37.95l10.21 4.10"/><path d="M529.03 37.64l9.94 4.71"/><path d="M557.15 37.40l9.69 5.20"/><path d="M585.26 37.21l9.48 5.57"/><path d="M613.33 37.09l9.33 5.82"/><path d="M641.37 37.02l9.25 5.95"/><path d="M669.38 37.02l9.25 5.96"/><path d="M697.34 37.08l9.32 5.84"/><path d="M725.26 37.20l9.47 5.59"/><path d="M753.16 37.40l9.69 5.21"/><path d="M781.03 37.65l9.94 4.71"/><path d="M808.90 37.95l10.21 4.11"/><path d="M836.78 38.28l10.45 3.45"/><path d="M864.68 38.61l10.64 2.78"/><path d="M81.33 70.91l9.33 -5.82"/><path d="M109.34 70.92l9.32 -5.84"/><path d="M137.31 70.87l9.38 -5.75"/><path d="M165.25 70.77l9.50 -5.54"/><path d="M193.16 70.61l9.69 -5.21"/><path d="M221.04 70.37l9.92 -4.75"/><path d="M248.90 70.07l10.19 -4.14"/><path d="M276.77 69.70l10.46 -3.39"/><path d="M304.64 69.25l10.71 -2.50"/><path d="M332.55 68.74l10.90 -1.48"/><path d="M360.50 68.18l10.99 -0.37"/><path d="M388.51 67.61l10.97 0.78"/><path d="M416.58 67.05l10.83 1.91"/><path d="M444.70 66.52l10.59 2.97"/><path d="M472.86 66.04l10.28 3.91"/><path d="M501.03 65.64l9.93 4.73"/><path d="M529.21 65.30l9.59 5.39"/><path d="M557.36 65.04l9.27 5.92"/><path d="M585.49 64.85l9.01 6.31"/><path d="M613.59 64.72l8.82 6.57"/><path d="M641.64 64.65l8.72 6.70"/><path d="M669.64 64.65l8.72 6.71"/><path d="M697.59 64.71l8.82 6.58"/><path d="M725.49 64.85l9.01 6.30"/><path d="M753.35 65.06l9.30 5.88"/><path d="M781.18 65.35l9.64 5.31"/><path d="M809.01 65.70l9.99 4.61"/><path d="M836.84 66.09l10.31 3.82"/><path d="M864.71 66.49l10.57 3.03"/><path d="M81.49 99.15l9.01 -6.31"/><path d="M109.51 99.17l8.99 -6.35"/><path d="M137.48 99.14l9.04 -6.27"/><path d="M165.42 99.04l9.17 -6.08"/><path d="M193.31 98.88l9.38 -5.75"/><path d="M221.17 98.64l9.65 -5.28"/><path d="M249.01 98.32l9.97 -4.64"/><path d="M276.84 97.91l10.31 -3.83"/><path d="M304.68 97.41l10.63 -2.83"/><path d="M332.56 96.83l10.87 -1.66"/><path d="M360.50 96.18l10.99 -0.37"/><path d="M388.52 95.51l10.96 0.98"/><path d="M416.62 94.85l10.76 2.31"/><path d="M444.79 94.24l10.42 3.53"/><path d="M473.00 93.70l10.00 4.59"/><path d="M501.23 93.26l9.54 5.48"/><path d="M529.45 92.91l9.09 6.19"/><path d="M557.65 92.63l8.70 6.73"/><path d="M585.81 92.44l8.38 7.13"/><path d="M613.93 92.31l8.15 7.39"/><path d="M641.99 92.24l8.03 7.52"/><path d="M669.99 92.24l8.03 7.52"/><path d="M697.92 92.31l8.15 7.39"/><path d="M725.80 92.45l8.41 7.09"/><path d="M753.61 92.69l8.78 6.63"/><path d="M781.38 93.01l9.24 5.97"/><path d="M809.14 93.42l9.72 5.15"/><path d="M836.92 93.89l10.16 4.21"/><path d="M864.75 94.37l10.51 3.25"/><path d="M81.67 127.39l8.66 -6.79"/><path d="M109.70 127.43l8.60 -6.85"/><path d="M137.68 127.40l8.64 -6.81"/><path d="M165.61 127.32l8.77 -6.64"/><path d="M193.50 127.16l9.00 -6.33"/><path d="M221.35 126.93l9.31 -5.86"/><path d="M249.16 126.60l9.69 -5.21"/><path d="M276.95 126.17l10.11 -4.33"/><path d="M304.74 125.61l10.52 -3.22"/><path d="M332.58 124.94l10.84 -1.87"/><path d="M360.50 124.17l10.99 -0.34"/><path d="M388.54 123.36l10.93 1.28"/><path d="M416.69 122.58l10.63 2.85"/><path d="M444.93 121.87l10.14 4.25"/><path d="M473.22 121.28l9.56 5.44"/><path d="M501.52 120.81l8.96 6.38"/><path d="M529.80 120.45l8.40 7.10"/><path d="M558.04 120.18l7.91 7.64"/><path d="M586.24 119.99l7.53 8.02"/><path d="M614.37 119.87l7.26 8.27"/><path d="M642.44 119.81l7.11 8.39"/><path d="M670.44 119.81l7.12 8.39"/><path d="M698.36 119.87l7.27 8.25"/><path d="M726.20 120.02l7.60 7.95"/><path d="M753.95 120.27l8.09 7.45"/><path d="M781.65 120.64l8.71 6.72"/><path d="M809.31 121.12l9.38 5.75"/><path d="M837.01 121.70l9.99 4.61"/><path d="M864.77 122.29l10.45 3.43"/><path d="M81.87 155.63l8.27 -7.25"/><path d="M109.91 155.68l8.18 -7.36"/><path d="M137.91 155.67l8.19 -7.34"/><path d="M165.85 155.61l8.31 -7.21"/><path d="M193.73 155.47l8.53 -6.94"/><path d="M221.56 155.25l8.87 -6.50"/><path d="M249.34 154.93l9.32 -5.85"/><path d="M277.08 154.47l9.83 -4.93"/><path d="M304.82 153.85l10.36 -3.70"/><path d="M332.60 153.06l10.79 -2.13"/><path d="M360.50 152.13l11.00 -0.27"/><path d="M388.57 151.14l10.87 1.71"/><path d="M416.80 150.20l10.40 3.60"/><path d="M445.15 149.40l9.69 5.20"/><path d="M473.55 148.76l8.89 6.47"/><path d="M501.94 148.29l8.12 7.43"/><path d="M530.29 147.94l7.43 8.12"/><path d="M558.57 147.70l6.85 8.60"/><path d="M586.80 147.53l6.41 8.94"/><path d="M614.95 147.42l6.10 9.15"/><path d="M643.03 147.37l5.94 9.26"/><path d="M671.03 147.37l5.95 9.25"/><path d="M698.93 147.43l6.13 9.13"/><path d="M726.73 147.58l6.53 8.85"/><path d="M754.42 147.83l7.16 8.35"/><path d="M782.00 148.23l8.00 7.55"/><path d="M809.53 148.79l8.94 6.41"/><path d="M837.10 149.50l9.80 5.00"/><path d="M864.79 150.25l10.43 3.50"/><path d="M82.07 183.85l7.85 -7.70"/><path d="M110.14 183.92l7.71 -7.84"/><path d="M138.16 183.94l7.68 -7.88"/><path d="M166.12 183.90l7.76 -7.80"/><path d="M194.01 183.79l7.97 -7.58"/><path d="M221.84 183.60l8.32 -7.19"/><path d="M249.59 183.29l8.82 -6.58"/><path d="M277.28 182.82l9.44 -5.65"/><path d="M304.94 182.15l10.13 -4.29"/><path d="M332.64 181.22l10.73 -2.43"/><path d="M360.50 180.06l11.00 -0.11"/><path d="M388.63 178.81l10.74 2.39"/><path d="M417.02 177.67l9.97 4.66"/><path d="M445.54 176.78l8.92 6.43"/><path d="M474.07 176.15l7.86 7.70"/><path d="M502.55 175.72l6.90 8.56"/><path d="M530.94 175.43l6.11 9.15"/><path d="M559.26 175.23l5.49 9.53"/><path d="M587.49 175.10l5.01 9.79"/><path d="M615.66 175.02l4.69 9.95"/><path d="M643.74 174.98l4.51 10.03"/><path d="M671.75 174.98l4.51 10.03"/><path d="M699.65 175.03l4.71 9.94"/><path d="M727.42 175.14l5.16 9.71"/><path d="M755.03 175.37l5.93 9.26"/><path d="M782.48 175.77l7.04 8.45"/><path d="M809.82 176.43l8.36 7.15"/><path d="M837.20 177.32l9.61 5.35"/><path d="M864.77 178.29l10.46 3.41"/><path d="M82.29 212.06l7.42 -8.12"/><path d="M110.39 212.15l7.21 -8.31"/><path d="M138.44 212.20l7.11 -8.39"/><path d="M166.43 212.19l7.14 -8.37"/><path d="M194.35 212.11l7.30 -8.23"/><path d="M222.18 211.96l7.63 -7.92"/><path d="M249.92 211.69l8.15 -7.38"/><path d="M277.56 211.25l8.88 -6.49"/><path d="M305.11 210.53l9.77 -5.05"/><path d="M332.68 209.41l10.63 -2.83"/><path d="M360.50 207.90l11.00 0.20"/><path d="M388.78 206.26l10.44 3.47"/><path d="M417.44 204.93l9.13 6.14"/><path d="M446.18 204.04l7.64 7.92"/><path d="M474.84 203.50l6.32 9.00"/><path d="M503.36 203.17l5.28 9.65"/><path d="M531.76 202.98l4.47 10.05"/><path d="M560.07 202.85l3.86 10.30"/><path d="M588.30 202.77l3.40 10.46"/><path d="M616.46 202.72l3.08 10.56"/><path d="M644.55 202.69l2.90 10.61"/><path d="M672.56 202.69l2.87 10.62"/><path d="M700.48 202.72l3.05 10.57"/><path d="M728.25 202.79l3.51 10.43"/><path d="M755.82 202.95l4.36 10.10"/><path d="M783.13 203.31l5.74 9.38"/><path d="M810.19 204.03l7.61 7.94"/><path d="M837.27 205.19l9.46 5.62"/><path d="M864.71 206.51l10.59 2.98"/><path d="M82.51 240.25l6.99 -8.49"/><path d="M110.65 240.37l6.69 -8.73"/><path d="M138.75 240.44l6.50 -8.87"/><path d="M166.78 240.46l6.44 -8.92"/><path d="M194.74 240.43l6.52 -8.86"/><path d="M222.61 240.33l6.78 -8.66"/><path d="M250.36 240.13l7.28 -8.25"/><path d="M277.97 239.74l8.06 -7.48"/><path d="M305.40 239.02l9.19 -6.04"/><path d="M332.76 237.68l10.48 -3.36"/><path d="M360.52 235.56l10.97 0.88"/><path d="M389.17 233.37l9.66 5.25"/><path d="M418.25 231.98l7.50 8.05"/><path d="M447.18 231.28l5.64 9.44"/><path d="M475.85 230.94l4.30 10.12"/><path d="M504.33 230.76l3.34 10.48"/><path d="M532.68 230.66l2.65 10.68"/><path d="M560.94 230.60l2.12 10.79"/><path d="M589.13 230.57l1.73 10.86"/><path d="M617.28 230.55l1.44 10.90"/><path d="M645.37 230.54l1.26 10.93"/><path d="M673.40 230.53l1.20 10.93"/><path d="M701.35 230.54l1.31 10.92"/><path d="M729.16 230.56l1.68 10.87"/><path d="M756.75 230.64l2.50 10.71"/><path d="M783.97 230.89l4.07 10.22"/><path d="M810.68 231.61l6.64 8.77"/><path d="M837.27 233.19l9.46 5.62"/><path d="M864.58 235.05l10.83 1.90"/><path d="M82.71 268.41l6.57 -8.82"/><path d="M110.91 268.55l6.17 -9.10"/><path d="M139.06 268.65l5.87 -9.30"/><path d="M167.15 268.71l5.69 -9.41"/><path d="M195.18 268.72l5.65 -9.44"/><path d="M223.11 268.68l5.77 -9.36"/><path d="M250.93 268.56l6.14 -9.13"/><path d="M278.56 268.29l6.87 -8.59"/><path d="M305.90 267.67l8.20 -7.34"/><path d="M332.91 266.08l10.18 -4.16"/><path d="M360.64 262.77l10.72 2.47"/><path d="M390.20 260.02l7.60 7.95"/><path d="M419.62 259.04l4.75 9.92"/><path d="M448.46 258.72l3.07 10.56"/><path d="M476.98 258.60l2.05 10.81"/><path d="M505.32 258.54l1.37 10.91"/><path d="M533.56 258.52l0.88 10.97"/><path d="M561.75 258.51l0.50 10.99"/><path d="M589.90 258.50l0.20 11.00"/><path d="M618.02 258.50l-0.04 11.00"/><path d="M646.11 258.50l-0.22 11.00"/><path d="M674.16 258.50l-0.32 11.00"/><path d="M702.15 258.50l-0.31 11.00"/><path d="M730.04 258.50l-0.08 11.00"/><path d="M757.72 258.51l0.55 10.99"/><path d="M784.96 258.60l2.09 10.80"/><path d="M811.27 259.22l5.46 9.55"/><path d="M837.07 261.56l9.86 4.88"/><path d="M864.50 264.20l10.99 -0.39"/><path d="M82.90 296.54l6.21 -9.08"/><path d="M111.16 296.71l5.69 -9.42"/><path d="M139.37 296.83l5.26 -9.66"/><path d="M167.54 296.92l4.92 -9.84"/><path d="M195.65 296.97l4.71 -9.94"/><path d="M223.69 296.99l4.63 -9.98"/><path d="M251.63 296.96l4.74 -9.93"/><path d="M279.40 296.85l5.19 -9.70"/><path d="M306.82 296.48l6.37 -8.97"/><path d="M333.28 294.83l9.43 -5.66"/><path d="M361.64 288.65l8.73 6.70"/><path d="M392.34 286.76l3.32 10.49"/><path d="M421.31 286.54l1.37 10.91"/><path d="M449.75 286.51l0.49 10.99"/><path d="M478.00 286.50l-0.01 11.00"/><path d="M506.17 286.50l-0.35 10.99"/><path d="M534.30 286.51l-0.61 10.98"/><path d="M562.42 286.52l-0.83 10.97"/><path d="M590.52 286.52l-1.03 10.95"/><path d="M618.61 286.53l-1.22 10.93"/><path d="M646.70 286.54l-1.39 10.91"/><path d="M674.76 286.55l-1.53 10.89"/><path d="M702.80 286.56l-1.61 10.88"/><path d="M730.77 286.55l-1.55 10.89"/><path d="M758.59 286.53l-1.18 10.94"/><path d="M785.97 286.50l0.07 11.00"/><path d="M811.86 286.93l4.29 10.13"/><path d="M836.58 291.09l10.85 1.82"/><path d="M864.87 293.99l10.26 -3.98"/><path d="M83.04 324.64l5.92 -9.27"/><path d="M111.36 324.83l5.27 -9.65"/><path d="M139.65 324.97l4.69 -9.95"/><path d="M167.91 325.09l4.19 -10.17"/><path d="M196.12 325.17l3.76 -10.34"/><path d="M224.29 325.23l3.41 -10.46"/><path d="M252.43 325.27l3.14 -10.54"/><path d="M280.51 325.29l2.99 -10.59"/><path d="M308.47 325.28l3.06 -10.57"/><path d="M335.58 324.94l4.85 -9.88"/><path d="M366.27 314.51l-0.54 10.99"/><path d="M394.66 314.54l-1.31 10.92"/><path d="M422.73 314.55l-1.46 10.90"/><path d="M450.76 314.55l-1.52 10.89"/><path d="M478.78 314.56l-1.56 10.89"/><path d="M506.81 314.56l-1.62 10.88"/><path d="M534.85 314.57l-1.69 10.87"/><path d="M562.89 314.57l-1.78 10.85"/><path d="M590.95 314.58l-1.90 10.84"/><path d="M619.01 314.59l-2.03 10.81"/><path d="M647.09 314.61l-2.18 10.78"/><path d="M675.16 314.62l-2.33 10.75"/><path d="M703.23 314.64l-2.47 10.72"/><path d="M731.27 314.65l-2.54 10.70"/><path d="M759.21 314.63l-2.41 10.73"/><path d="M786.77 314.55l-1.54 10.89"/><path d="M811.87 314.93l4.26 10.14"/><path d="M837.04 322.38l9.92 -4.76"/><path d="M865.79 323.53l8.43 -7.07"/><path d="M83.13 352.69l5.74 -9.38"/><path d="M111.52 352.91l4.97 -9.81"/><path d="M139.88 353.08l4.24 -10.15"/><path d="M168.22 353.21l3.55 -10.41"/><path d="M196.55 353.31l2.89 -10.61"/><path d="M224.88 353.39l2.23 -10.77"/><path d="M253.25 353.45l1.49 -10.90"/><path d="M281.77 353.50l0.46 -10.99"/><path d="M310.88 353.43l-1.76 -10.86"/><path d="M343.27 349.57l-10.54 -3.14"/><path d="M369.03 343.41l-6.07 9.17"/><path d="M396.01 342.88l-4.03 10.24"/><path d="M423.61 342.74l-3.23 10.52"/><path d="M451.40 342.68l-2.81 10.64"/><path d="M479.28 342.65l-2.56 10.70"/><path d="M507.21 342.63l-2.42 10.73"/><path d="M535.18 342.63l-2.35 10.75"/><path d="M563.17 342.63l-2.34 10.75"/><path d="M591.19 342.63l-2.37 10.74"/><path d="M619.22 342.64l-2.44 10.73"/><path d="M647.27 342.65l-2.55 10.70"/><path d="M675.34 342.67l-2.67 10.67"/><path d="M703.41 342.68l-2.81 10.63"/><path d="M731.46 342.70l-2.92 10.61"/><path d="M759.44 342.69l-2.88 10.62"/><path d="M787.04 342.60l-2.07 10.80"/><path d="M808.62 346.88l10.77 2.24"/><path d="M838.36 352.12l7.29 -8.24"/><path d="M866.51 352.25l6.99 -8.49"/><path d="M83.14 380.70l5.73 -9.39"/><path d="M111.59 380.94l4.83 -9.88"/><path d="M140.03 381.13l3.95 -10.27"/><path d="M168.46 381.28l3.08 -10.56"/><path d="M196.90 381.39l2.19 -10.78"/><path d="M225.39 381.47l1.22 -10.93"/><path d="M254.01 381.50l-0.01 -11.00"/><path d="M282.98 381.41l-1.96 -10.82"/><path d="M313.09 380.55l-6.17 -9.10"/><path d="M343.46 375.34l-10.92 1.32"/><path d="M369.68 371.91l-7.36 8.18"/><path d="M396.60 371.16l-5.21 9.69"/><path d="M424.06 370.90l-4.11 10.20"/><path d="M451.74 370.78l-3.47 10.44"/><path d="M479.53 370.72l-3.06 10.57"/><path d="M507.40 370.68l-2.79 10.64"/><path d="M535.31 370.66l-2.62 10.68"/><path d="M563.26 370.65l-2.51 10.71"/><path d="M591.23 370.64l-2.46 10.72"/><path d="M619.23 370.64l-2.45 10.72"/><path d="M647.24 370.64l-2.48 10.72"/><path d="M675.26 370.65l-2.52 10.71"/><path d="M703.28 370.65l-2.55 10.70"/><path d="M731.25 370.64l-2.51 10.71"/><path d="M759.06 370.60l-2.13 10.79"/><path d="M785.61 370.51l0.78 10.97"/><path d="M809.79 379.54l8.42 -7.08"/><path d="M838.72 380.42l6.56 -8.83"/><path d="M866.75 380.43l6.51 -8.87"/><path d="M83.05 408.64l5.90 -9.28"/><path d="M111.55 408.92l4.91 -9.85"/><path d="M140.05 409.14l3.90 -10.29"/><path d="M168.57 409.31l2.86 -10.62"/><path d="M197.12 409.43l1.77 -10.86"/><path d="M225.75 409.49l0.50 -10.99"/><path d="M254.58 409.47l-1.17 -10.94"/><path d="M283.95 409.14l-3.90 -10.29"/><path d="M314.41 407.29l-8.82 -6.58"/><path d="M343.26 402.39l-10.52 3.21"/><path d="M369.75 399.97l-7.50 8.05"/><path d="M396.76 399.24l-5.52 9.51"/><path d="M424.19 398.95l-4.37 10.09"/><path d="M451.82 398.81l-3.63 10.38"/><path d="M479.56 398.73l-3.13 10.55"/><path d="M507.38 398.68l-2.77 10.65"/><path d="M535.25 398.64l-2.50 10.71"/><path d="M563.15 398.62l-2.31 10.76"/><path d="M591.08 398.61l-2.16 10.79"/><path d="M619.02 398.59l-2.04 10.81"/><path d="M646.96 398.58l-1.92 10.83"/><path d="M674.89 398.57l-1.77 10.86"/><path d="M702.75 398.55l-1.51 10.90"/><path d="M730.45 398.52l-0.90 10.96"/><path d="M757.45 398.53l1.10 10.95"/><path d="M780.91 401.91l10.17 4.19"/><path d="M809.88 407.64l8.24 -7.29"/><path d="M838.55 408.28l6.90 -8.57"/><path d="M866.66 408.37l6.68 -8.74"/><path d="M82.85 436.51l6.29 -9.02"/><path d="M111.38 436.84l5.24 -9.67"/><path d="M139.93 437.09l4.14 -10.19"/><path d="M168.51 437.29l2.99 -10.59"/><path d="M197.14 437.43l1.73 -10.86"/><path d="M225.88 437.50l0.23 -11.00"/><path d="M254.90 437.43l-1.81 -10.85"/><path d="M284.59 436.85l-5.18 -9.70"/><path d="M315.08 434.10l-10.17 -4.20"/><path d="M342.95 429.61l-9.90 4.79"/><path d="M369.54 427.79l-7.07 8.42"/><path d="M396.63 427.17l-5.27 9.66"/><path d="M424.07 426.90l-4.14 10.19"/><path d="M451.68 426.76l-3.37 10.47"/><path d="M479.40 426.68l-2.80 10.64"/><path d="M507.18 426.63l-2.37 10.74"/><path d="M535.01 426.59l-2.02 10.81"/><path d="M562.86 426.57l-1.72 10.86"/><path d="M590.72 426.55l-1.44 10.91"/><path d="M618.58 426.53l-1.15 10.94"/><path d="M646.40 426.51l-0.81 10.97"/><path d="M674.15 426.50l-0.31 11.00"/><path d="M701.72 426.51l0.55 10.99"/><path d="M728.80 426.63l2.39 10.74"/><path d="M754.47 427.78l7.07 8.43"/><path d="M780.55 432.74l10.90 -1.48"/><path d="M809.63 435.34l8.74 -6.67"/><path d="M838.22 435.99l7.57 -7.99"/><path d="M866.41 436.17l7.17 -8.34"/><path d="M82.55 464.28l6.90 -8.57"/><path d="M111.07 464.65l5.87 -9.30"/><path d="M139.62 464.96l4.75 -9.92"/><path d="M168.23 465.21l3.55 -10.41"/><path d="M196.90 465.39l2.21 -10.78"/><path d="M225.70 465.49l0.59 -10.98"/><path d="M254.85 465.43l-1.69 -10.87"/><path d="M284.85 464.70l-5.71 -9.40"/><path d="M315.42 460.91l-10.85 -1.82"/><path d="M342.42 456.73l-8.85 6.53"/><path d="M369.07 455.43l-6.13 9.13"/><path d="M396.25 454.98l-4.51 10.03"/><path d="M423.72 454.78l-3.45 10.45"/><path d="M451.34 454.67l-2.69 10.67"/><path d="M479.05 454.60l-2.09 10.80"/><path d="M506.80 454.56l-1.60 10.88"/><path d="M534.58 454.53l-1.16 10.94"/><path d="M562.37 454.51l-0.74 10.98"/><path d="M590.15 454.50l-0.29 11.00"/><path d="M617.89 454.50l0.22 11.00"/><path d="M645.55 454.52l0.90 10.96"/><path d="M673.05 454.58l1.90 10.83"/><path d="M700.21 454.80l3.57 10.40"/><path d="M726.74 455.57l6.52 8.86"/><path d="M752.87 458.02l10.26 3.97"/><path d="M780.65 461.29l10.69 -2.58"/><path d="M809.37 462.97l9.25 -5.95"/><path d="M837.88 463.64l8.25 -7.28"/><path d="M866.12 463.90l7.77 -7.79"/><path d="M82.17 491.94l7.67 -7.89"/><path d="M110.63 492.34l6.75 -8.69"/><path d="M139.14 492.70l5.73 -9.39"/><path d="M167.70 493.00l4.60 -9.99"/><path d="M196.32 493.24l3.35 -10.48"/><path d="M225.08 493.42l1.84 -10.84"/><path d="M254.18 493.50l-0.36 -10.99"/><path d="M284.48 492.91l-4.97 -9.82"/><path d="M315.44 487.22l-10.89 1.56"/><path d="M341.42 483.69l-6.84 8.62"/><path d="M368.26 482.98l-4.51 10.03"/><path d="M395.60 482.74l-3.20 10.53"/><path d="M423.15 482.62l-2.29 10.76"/><path d="M450.79 482.56l-1.59 10.88"/><path d="M478.50 482.52l-0.99 10.96"/><path d="M506.22 482.50l-0.45 10.99"/><path d="M533.96 482.50l0.08 11.00"/><path d="M561.68 482.51l0.63 10.98"/><path d="M589.37 482.54l1.26 10.93"/><path d="M616.98 482.59l2.04 10.81"/><path d="M644.47 482.72l3.07 10.56"/><path d="M671.74 482.99l4.53 10.02"/><path d="M698.68 483.61l6.63 8.78"/><path d="M725.39 485.00l9.22 6.00"/><path d="M752.55 487.26l10.90 1.47"/><path d="M780.67 489.37l10.66 -2.73"/><path d="M809.17 490.63l9.67 -5.25"/><path d="M837.58 491.27l8.84 -6.54"/><path d="M865.83 491.58l8.35 -7.17"/><path d="M81.75 519.49l8.51 -6.98"/><path d="M110.11 519.89l7.78 -7.78"/><path d="M138.51 520.25l6.97 -8.51"/><path d="M166.95 520.58l6.09 -9.16"/><path d="M195.42 520.86l5.16 -9.71"/><path d="M223.92 521.09l4.17 -10.18"/><path d="M252.51 521.30l2.97 -10.59"/><path d="M281.77 521.50l0.46 -10.99"/><path d="M313.07 511.44l-6.14 9.12"/><path d="M339.55 510.72l-3.09 10.56"/><path d="M367.01 510.59l-2.03 10.81"/><path d="M394.64 510.54l-1.28 10.93"/><path d="M422.32 510.51l-0.65 10.98"/><path d="M450.03 510.50l-0.07 11.00"/><path d="M477.76 510.51l0.48 10.99"/><path d="M505.48 510.52l1.04 10.95"/><path d="M533.18 510.56l1.64 10.88"/><path d="M560.85 510.62l2.31 10.76"/><path d="M588.45 510.72l3.09 10.56"/><path d="M615.97 510.89l4.07 10.22"/><path d="M643.34 511.18l5.32 9.63"/><path d="M670.55 511.71l6.90 8.57"/><path d="M697.64 512.65l8.73 6.70"/><path d="M724.84 514.11l10.33 3.78"/><path d="M752.50 515.83l10.99 0.33"/><path d="M780.66 517.31l10.68 -2.62"/><path d="M809.01 518.31l9.98 -4.63"/><path d="M837.34 518.92l9.32 -5.84"/><path d="M865.57 519.26l8.86 -6.52"/><path d="M81.36 546.95l9.28 -5.90"/><path d="M109.61 547.31l8.79 -6.61"/><path d="M137.87 547.63l8.26 -7.27"/><path d="M166.14 547.91l7.73 -7.83"/><path d="M194.36 548.12l7.28 -8.25"/><path d="M222.47 548.22l7.06 -8.43"/><path d="M250.25 548.03l7.49 -8.05"/><path d="M277.00 546.29l10.00 -4.59"/><path d="M306.78 539.54l6.43 8.92"/><path d="M336.97 538.60l2.05 10.81"/><path d="M365.40 538.53l1.21 10.93"/><path d="M393.41 538.53l1.17 10.94"/><path d="M421.29 538.55l1.42 10.91"/><path d="M449.11 538.57l1.79 10.85"/><path d="M476.88 538.62l2.24 10.77"/><path d="M504.61 538.68l2.77 10.64"/><path d="M532.31 538.77l3.39 10.47"/><path d="M559.95 538.90l4.11 10.20"/><path d="M587.52 539.09l4.97 9.82"/><path d="M615.00 539.39l5.99 9.22"/><path d="M642.40 539.85l7.21 8.31"/><path d="M669.72 540.54l8.56 6.91"/><path d="M697.08 541.54l9.84 4.91"/><path d="M724.63 542.80l10.73 2.40"/><path d="M752.50 544.10l11.00 -0.20"/><path d="M780.64 545.22l10.73 -2.43"/><path d="M808.89 546.04l10.21 -4.08"/><path d="M837.15 546.60l9.70 -5.19"/><path d="M865.35 546.94l9.29 -5.89"/><path d="M81.05 574.39l9.91 -4.78"/><path d="M109.19 574.67l9.62 -5.34"/><path d="M137.33 574.91l9.33 -5.83"/><path d="M165.45 575.09l9.10 -6.18"/><path d="M193.49 575.14l9.03 -6.28"/><path d="M221.37 574.96l9.27 -5.93"/><path d="M248.98 574.25l10.04 -4.50"/><path d="M276.51 572.24l10.99 -0.49"/><path d="M305.33 569.10l9.34 5.81"/><path d="M334.90 567.46l6.20 9.09"/><path d="M363.76 566.98l4.49 10.04"/><path d="M392.10 566.84l3.81 10.32"/><path d="M420.17 566.81l3.66 10.37"/><path d="M448.10 566.84l3.79 10.32"/><path d="M475.95 566.90l4.11 10.20"/><path d="M503.72 566.99l4.56 10.01"/><path d="M531.44 567.13l5.13 9.73"/><path d="M559.09 567.33l5.81 9.34"/><path d="M586.69 567.61l6.62 8.78"/><path d="M614.22 568.00l7.55 8.00"/><path d="M641.72 568.55l8.56 6.91"/><path d="M669.22 569.28l9.56 5.45"/><path d="M696.81 570.19l10.39 3.62"/><path d="M724.56 571.22l10.89 1.56"/><path d="M752.50 572.23l10.99 -0.46"/><path d="M780.61 573.11l10.77 -2.22"/><path d="M808.80 573.80l10.39 -3.61"/><path d="M837.01 574.30l9.99 -4.61"/><path d="M865.18 574.64l9.65 -5.28"/><path d="M80.83 601.87l10.35 -3.74"/><path d="M108.90 602.06l10.20 -4.13"/><path d="M136.96 602.21l10.07 -4.43"/><path d="M164.99 602.28l10.01 -4.56"/><path d="M192.96 602.20l10.08 -4.40"/><path d="M220.83 601.87l10.35 -3.73"/><path d="M248.61 601.09l10.78 -2.19"/><path d="M276.51 599.68l10.98 0.63"/><path d="M304.92 597.88l10.15 4.23"/><path d="M333.76 596.49l8.47 7.02"/><path d="M362.50 595.76l7.01 8.48"/><path d="M390.93 595.44l6.14 9.13"/><path d="M419.12 595.31l5.75 9.38"/><path d="M447.15 595.29l5.69 9.41"/><path d="M475.07 595.34l5.86 9.31"/><path d="M502.90 595.45l6.19 9.09"/><path d="M530.67 595.62l6.66 8.75"/><path d="M558.38 595.86l7.25 8.27"/><path d="M586.03 596.19l7.93 7.62"/><path d="M613.66 596.62l8.68 6.76"/><path d="M641.28 597.17l9.44 5.65"/><path d="M668.93 597.86l10.13 4.29"/><path d="M696.67 598.64l10.66 2.71"/><path d="M724.52 599.48l10.95 1.04"/><path d="M752.51 600.29l10.98 -0.58"/><path d="M780.59 601.01l10.81 -2.01"/><path d="M808.74 601.59l10.53 -3.19"/><path d="M836.89 602.04l10.21 -4.08"/><path d="M865.03 602.36l9.94 -4.72"/></g></svg>